<?xml version="1.0" encoding="utf-8"?>
<!-- Generator: Adobe Illustrator 19.2.1, SVG Export Plug-In . SVG Version: 6.00 Build 0)  -->
<!DOCTYPE svg PUBLIC "-//W3C//DTD SVG 1.1//EN" "http://www.w3.org/Graphics/SVG/1.1/DTD/svg11.dtd">
<svg version="1.1" xmlns="http://www.w3.org/2000/svg" xmlns:xlink="http://www.w3.org/1999/xlink" x="0px" y="0px"
	 viewBox="0 0 283.5 283.5" enable-background="new 0 0 283.5 283.5" xml:space="preserve">

	<path d="M250.8,225.3c-0.8-0.9-3.8-0.1-5.5,0.7c-5.5,2.6-10.6,6.2-16.3,8.2c-13.4,4.8-24.2,0.9-32.7-11.2c-2-2.8-3.7-5.9-5.7-8.8
		c-4.6-6.6-10.6-11.1-18.2-13c-11.7-3-21.6,0.3-30.8,8.4c-9.2-8-19.1-11.3-30.8-8.4c-7.6,1.9-13.6,6.4-18.2,13
		c-2,2.8-3.7,5.9-5.7,8.8c-8.5,12.1-19.2,16-32.7,11.2c-5.6-2-10.8-5.6-16.3-8.2c-1.7-0.8-4.7-1.6-5.5-0.7c-1.2,1.3-1.7,4.3-1.1,6.1
		c2.4,7.5,4.7,15.1,8.1,22c10.1,19.9,27.1,28.2,47.3,29.8c21.8,1.7,40.2-6.1,54.7-23.9c14.5,17.8,32.9,25.6,54.7,23.9
		c20.2-1.6,37.3-9.9,47.3-29.8c3.5-6.9,5.7-14.6,8.1-22C252.5,229.6,252,226.6,250.8,225.3z"/>
	<path d="M83.5,131.1c-11.7,0-21.3,9.5-21.3,21.3c0,11.7,9.5,21.3,21.3,21.3s21.3-9.5,21.3-21.3C104.8,140.6,95.3,131.1,83.5,131.1z
		 M83.5,163.2c-5.9,0-10.8-4.8-10.8-10.8c0-5.8,4.6-10.6,10.4-10.8c-0.5,0.9-0.7,2-0.7,3.1c0,3.9,3.2,7.1,7.1,7.1
		c1.7,0,3.3-0.6,4.5-1.7c0.1,0.7,0.2,1.4,0.2,2.2C94.3,158.3,89.5,163.2,83.5,163.2z"/>
    <path d="M141.4,71.1c79.5,0,100,6.7,101.2,15.1h0.1C242.6,38.6,223.3,0,141.4,0S40.1,38.6,40.1,86.2h0.1
        C41.3,77.8,61.9,71.1,141.4,71.1z"/>
	<path d="M141.7,81.2C63.5,81.2,0,100.8,0,124.8c0,5.1,2.8,9.9,7.9,14.4c-0.2-0.7-0.3-1.5-0.3-2.2c0-17.3,60-31.4,134.1-31.4
		c11.5,0,22.6,0.3,33.2,1c-19.3,6.3-33.2,24.4-33.2,45.8c0,26.6,21.6,48.2,48.2,48.2c26.6,0,48.2-21.6,48.2-48.2
		c0-17.9-9.8-33.6-24.3-41.9c37.3,5.6,62.1,15.3,62.1,26.5c0,0.7-0.1,1.5-0.3,2.2c5.1-4.5,7.9-9.4,7.9-14.4
		C283.5,100.8,220,81.2,141.7,81.2z M227.6,152.5c0,20.8-16.9,37.7-37.7,37.7s-37.7-16.9-37.7-37.7s16.9-37.7,37.7-37.7
		S227.6,131.7,227.6,152.5z"/>

</svg>
