<?xml version="1.0" encoding="utf-8"?>
<!-- Generator: Adobe Illustrator 19.2.1, SVG Export Plug-In . SVG Version: 6.00 Build 0)  -->
<!DOCTYPE svg PUBLIC "-//W3C//DTD SVG 1.1//EN" "http://www.w3.org/Graphics/SVG/1.1/DTD/svg11.dtd">
<svg version="1.1" id="Ebene_1" xmlns="http://www.w3.org/2000/svg" xmlns:xlink="http://www.w3.org/1999/xlink" x="0px" y="0px"
	 viewBox="0 0 64 64" style="enable-background:new 0 0 64 64;" xml:space="preserve">
<style type="text/css">
	.st0{fill:#3F3F3F;}
	.st1{fill:#FFFFFF;}
</style>
<rect y="0" class="st0" width="64" height="64"/>
<path class="st1" d="M47.4,43.7c-0.1-0.1-0.5,0-0.7,0.1c-0.8,0.4-1.5,0.9-2.3,1.1c-1.9,0.6-3.4,0.1-4.6-1.6
	c-0.3-0.4-0.5-0.9-0.8-1.3c-0.6-0.9-1.5-1.6-2.6-1.9c-1.6-0.4-3,0-4.4,1.1c-1.3-1.1-2.8-1.6-4.4-1.1c-1.1,0.3-1.9,0.9-2.6,1.9
	c-0.3,0.4-0.5,0.9-0.8,1.3c-1.3,1.8-2.8,2.2-4.6,1.6c-0.8-0.3-1.5-0.7-2.2-1.1c-0.3-0.1-0.6-0.3-0.8-0.1c-0.1,0.1-0.3,0.6-0.1,0.9
	c0.4,1,0.6,2.1,1.1,3.1c1.4,2.8,3.9,4,6.6,4.3c3.1,0.3,5.6-0.9,7.8-3.4c2,2.5,4.6,3.6,7.8,3.4c2.9-0.3,5.3-1.4,6.6-4.3
	c0.5-1,0.7-2,1.1-3.1C47.6,44.4,47.5,43.9,47.4,43.7z"/>
<path class="st1" d="M23.8,30.5c-1.6,0-3,1.4-3,3s1.4,3,3,3s3-1.4,3-3C26.8,31.7,25.5,30.5,23.8,30.5z M23.8,35
	c-0.9,0-1.5-0.6-1.5-1.5c0-0.9,0.6-1.5,1.5-1.5c-0.1,0.1-0.1,0.3-0.1,0.4c0,0.5,0.5,1,1,1c0.3,0,0.5-0.1,0.6-0.3c0,0.1,0,0.3,0,0.3
	C25.3,34.2,24.6,35,23.8,35z"/>
<path class="st1" d="M32,22c11.3,0,14.1,1,14.3,2.1l0,0C46.3,17.4,43.5,12,32,12s-14.2,5.5-14.2,12.1l0,0C17.9,22.9,20.8,22,32,22z"
	/>
<path class="st1" d="M32,23.4c-11,0-20,2.8-20,6.1c0,0.8,0.4,1.4,1.1,2c0-0.1,0-0.3,0-0.3c0-2.5,8.5-4.4,18.9-4.4
	c1.6,0,3.2,0,4.6,0.1c-2.8,0.9-4.6,3.5-4.6,6.5c0,3.8,3,6.8,6.8,6.8s6.8-3,6.8-6.8c0-2.5-1.4-4.7-3.4-5.9c5.3,0.8,8.8,2.1,8.8,3.7
	c0,0.1,0,0.3,0,0.3c0.8-0.6,1.1-1.4,1.1-2C52,26.1,43,23.4,32,23.4z M44.1,33.5c0,2.9-2.4,5.4-5.4,5.4c-2.9,0-5.4-2.4-5.4-5.4
	c0-3,2.4-5.4,5.4-5.4C41.7,28.1,44.1,30.5,44.1,33.5z"/>
</svg>
